<?xml version="1.0" encoding="utf-8"?>
<!-- Generator: Adobe Illustrator 17.0.0, SVG Export Plug-In . SVG Version: 6.00 Build 0)  -->
<!DOCTYPE svg PUBLIC "-//W3C//DTD SVG 1.1//EN" "http://www.w3.org/Graphics/SVG/1.1/DTD/svg11.dtd">
<svg version="1.1" id="Layer_1" xmlns="http://www.w3.org/2000/svg" xmlns:xlink="http://www.w3.org/1999/xlink" x="0px" y="0px"
	 width="538.583px" height="247.323px" viewBox="0 0 538.583 247.323" enable-background="new 0 0 538.583 247.323"
	 xml:space="preserve">
<g>
	<g>
		<circle fill="#F95700" cx="345.827" cy="39.685" r="11.339"/>
		<path fill="#F95700" d="M80.08,62.363v19.843c7.827,0,14.173,6.345,14.173,14.173h19.843
			C114.095,77.592,98.866,62.363,80.08,62.363z"/>
		<path fill="#F95700" d="M80.08,114.094v19.843c18.786,0,34.016-15.229,34.016-34.016H94.253
			C94.253,107.749,87.907,114.094,80.08,114.094z"/>
		<path fill="#F95700" d="M62.363,99.921H42.52c0,18.787,15.229,34.016,34.016,34.016v-19.843
			C68.709,114.094,62.363,107.749,62.363,99.921z"/>
		<path fill="#F95700" d="M179.292,99.921H159.45c0,18.787,15.229,34.016,34.016,34.016v-19.843
			C185.637,114.094,179.292,107.749,179.292,99.921z"/>
		<path fill="#F95700" d="M245.198,114.094v19.843c18.786,0,34.016-15.229,34.016-34.016H259.37
			C259.37,107.749,253.025,114.094,245.198,114.094z"/>
		<path fill="#F95700" d="M245.198,62.363v19.843c7.827,0,14.173,6.346,14.173,14.173h19.843
			C279.213,77.592,263.984,62.363,245.198,62.363z"/>
		<path fill="#F95700" d="M207.638,96.379h19.843c0-7.827,6.346-14.173,14.173-14.173V62.363
			C222.868,62.363,207.638,77.592,207.638,96.379z"/>
		<path fill="#F95700" d="M227.481,99.922h-19.843v51.023h19.843v-20.103c4.316,1.982,9.113,3.095,14.173,3.095v-19.843
			C233.827,114.094,227.481,107.749,227.481,99.922z"/>
		<rect x="125.434" y="62.363" fill="#F95700" width="19.842" height="34.016"/>
		<rect x="125.434" y="99.921" fill="#F95700" width="19.842" height="34.016"/>
		<circle fill="#F95700" cx="135.355" cy="156.615" r="11.339"/>
		<rect x="335.906" y="62.363" fill="#F95700" width="19.843" height="34.016"/>
		<rect x="335.906" y="99.921" fill="#F95700" width="19.843" height="34.016"/>
		<path fill="#F95700" d="M290.551,96.379h19.843c0-7.828,6.346-14.173,14.173-14.173V62.363
			C305.781,62.363,290.551,77.592,290.551,96.379z"/>
		<rect x="290.551" y="99.922" fill="#F95700" width="19.843" height="34.016"/>
		<path fill="#F95700" d="M372.756,96.379h19.842c0-7.828,6.346-14.173,14.174-14.173V62.363
			C387.985,62.363,372.756,77.592,372.756,96.379z"/>
		<rect x="372.756" y="99.922" fill="#F95700" width="19.842" height="34.016"/>
		<path fill="#F95700" d="M496.062,96.379c0-18.787-15.229-34.016-34.016-34.016v19.842c7.827,0,14.173,6.346,14.173,14.173H496.062
			z"/>
		<rect x="476.22" y="99.922" fill="#F95700" width="19.843" height="34.016"/>
		<path fill="#F95700" d="M410.315,62.363v19.842c7.827,0,14.173,6.346,14.173,14.173h19.843c0-7.828,6.346-14.173,14.173-14.173
			V62.363c-9.415,0-17.935,3.826-24.094,10.006C428.25,66.189,419.729,62.363,410.315,62.363z"/>
		<rect x="424.487" y="99.922" fill="#F95700" width="19.843" height="34.016"/>
		<polygon fill="#F95700" points="159.45,62.363 159.45,82.205 159.45,96.378 179.292,96.378 179.292,82.205 193.465,82.205 
			193.465,62.363 179.292,62.363 		"/>
		<path fill="#F95700" d="M62.363,45.355L42.52,51.024v45.354h19.843c0-7.828,6.346-14.173,14.173-14.173V62.363
			c-5.06,0-9.857,1.113-14.173,3.095V45.355z"/>
	</g>
	<g>
		<path fill="#F95700" d="M439.132,167.723c0,1.512-0.756,2.499-1.491,2.981c1.575,0.546,2.751,1.638,2.751,3.779
			c0,2.877-2.268,4.493-5.123,4.493h-6.991v-15.432h5.963C437.304,163.545,439.132,165.119,439.132,167.723z M431.468,166.463v3.381
			h2.436c1.217,0,2.016-0.672,2.016-1.701c0-1.05-0.777-1.68-2.1-1.68H431.468z M431.468,172.384v3.675h3.4
			c1.387,0,2.268-0.63,2.268-1.827c0-1.196-0.86-1.848-2.352-1.848H431.468z"/>
		<path fill="#F95700" d="M445.707,164.973c0,1.05-0.756,1.806-1.807,1.806c-1.049,0-1.805-0.756-1.805-1.806
			s0.756-1.806,1.805-1.806C444.951,163.167,445.707,163.923,445.707,164.973z M445.433,178.977h-3.086v-10.645h3.086V178.977z"/>
		<path fill="#F95700" d="M452.069,168.332h3.044v2.604h-3.044v4.031c0,0.924,0.588,1.448,1.47,1.448c0.63,0,1.07-0.146,1.365-0.314
			l0.776,2.436c-0.567,0.336-1.344,0.65-2.436,0.65c-2.604,0-4.263-1.49-4.263-4.178v-4.073h-1.91v-2.604h1.91v-3.527h3.087V168.332
			z"/>
		<path fill="#F95700" d="M466.221,170.558l-2.204,1.638c-0.42-0.819-1.113-1.407-2.163-1.407c-1.575,0-2.415,1.281-2.415,2.877
			c0,1.574,0.861,2.855,2.436,2.855c1.029,0,1.764-0.588,2.205-1.407l2.162,1.659c-0.965,1.512-2.414,2.414-4.388,2.414
			c-3.255,0-5.522-2.33-5.522-5.521s2.268-5.543,5.502-5.543C463.806,168.122,465.256,169.024,466.221,170.558z"/>
		<path fill="#F95700" d="M478.234,173.686c0,3.191-2.395,5.501-5.627,5.501c-3.234,0-5.586-2.31-5.586-5.501
			s2.352-5.563,5.586-5.563C475.84,168.122,478.234,170.494,478.234,173.686z M470.129,173.686c0,1.617,1.051,2.813,2.479,2.813
			c1.448,0,2.498-1.196,2.498-2.813c0-1.638-1.05-2.876-2.498-2.876C471.179,170.81,470.129,172.048,470.129,173.686z"/>
		<path fill="#F95700" d="M483.568,164.973c0,1.05-0.756,1.806-1.805,1.806c-1.051,0-1.807-0.756-1.807-1.806
			s0.756-1.806,1.807-1.806C482.812,163.167,483.568,163.923,483.568,164.973z M483.296,178.977h-3.087v-10.645h3.087V178.977z"/>
		<path fill="#F95700" d="M496.062,172.846v6.131h-3.086v-5.963c0-1.176-0.651-1.994-1.743-1.994c-0.966,0-1.616,0.608-2.016,1.26
			v6.697h-3.087v-10.645h2.771l0.147,1.176c0.524-0.777,1.554-1.386,3.023-1.386C494.656,168.122,496.062,169.97,496.062,172.846z"
			/>
		<path fill="#F95700" d="M426.154,188.646c0,3.275-2.457,5.103-5.418,5.103h-2.96v5.228h-3.212v-15.432h6.172
			C423.675,183.545,426.154,185.371,426.154,188.646z M417.776,186.316v4.661h2.646c1.49,0,2.498-0.777,2.498-2.331
			c0-1.512-1.008-2.33-2.498-2.33H417.776z"/>
		<path fill="#F95700" d="M434.091,191.187h-0.252c-1.26,0-2.057,0.63-2.666,1.406v6.383h-3.086v-10.645h2.75l0.189,1.406
			c0.524-0.86,1.574-1.616,3.064-1.616V191.187z"/>
		<path fill="#F95700" d="M446.187,193.686c0,3.191-2.393,5.501-5.627,5.501c-3.232,0-5.584-2.31-5.584-5.501
			s2.352-5.563,5.584-5.563C443.795,188.122,446.187,190.494,446.187,193.686z M438.084,193.686c0,1.617,1.049,2.813,2.477,2.813
			c1.449,0,2.499-1.196,2.499-2.813c0-1.638-1.05-2.876-2.499-2.876C439.132,190.81,438.084,192.048,438.084,193.686z"/>
		<path fill="#F95700" d="M451.964,188.332h3.044v2.604h-3.044v4.031c0,0.924,0.588,1.448,1.47,1.448c0.63,0,1.07-0.146,1.365-0.314
			l0.776,2.436c-0.567,0.336-1.344,0.65-2.436,0.65c-2.604,0-4.263-1.49-4.263-4.178v-4.073h-1.91v-2.604h1.91v-3.527h3.087V188.332
			z"/>
		<path fill="#F95700" d="M467.439,193.686c0,3.191-2.393,5.501-5.627,5.501c-3.232,0-5.584-2.31-5.584-5.501
			s2.352-5.563,5.584-5.563C465.047,188.122,467.439,190.494,467.439,193.686z M459.336,193.686c0,1.617,1.049,2.813,2.477,2.813
			c1.449,0,2.499-1.196,2.499-2.813c0-1.638-1.05-2.876-2.499-2.876C460.384,190.81,459.336,192.048,459.336,193.686z"/>
		<path fill="#F95700" d="M478.737,190.558l-2.204,1.638c-0.42-0.819-1.113-1.407-2.163-1.407c-1.575,0-2.415,1.281-2.415,2.877
			c0,1.574,0.861,2.855,2.436,2.855c1.029,0,1.764-0.588,2.205-1.407l2.162,1.659c-0.965,1.512-2.414,2.414-4.388,2.414
			c-3.255,0-5.522-2.33-5.522-5.521s2.268-5.543,5.502-5.543C476.322,188.122,477.771,189.024,478.737,190.558z"/>
		<path fill="#F95700" d="M490.75,193.686c0,3.191-2.395,5.501-5.627,5.501c-3.234,0-5.586-2.31-5.586-5.501
			s2.352-5.563,5.586-5.563C488.355,188.122,490.75,190.494,490.75,193.686z M482.644,193.686c0,1.617,1.051,2.813,2.479,2.813
			c1.448,0,2.498-1.196,2.498-2.813c0-1.638-1.05-2.876-2.498-2.876C483.695,190.81,482.644,192.048,482.644,193.686z"/>
		<path fill="#F95700" d="M495.811,198.977h-3.087V183.02h3.087V198.977z"/>
		<path fill="#F95700" d="M341.988,218.977h-3.213v-15.432h3.213V218.977z"/>
		<path fill="#F95700" d="M354.062,209.948c0.777-1.07,1.848-1.826,3.506-1.826c2.479,0,3.822,1.848,3.822,4.724v6.131h-3.107
			v-5.963c0-1.176-0.567-1.994-1.617-1.994c-0.924,0-1.533,0.588-1.974,1.26v6.697h-3.087v-5.963c0-1.176-0.566-1.994-1.616-1.994
			c-0.924,0-1.532,0.608-1.974,1.26v6.697h-3.086v-10.645h2.771l0.146,1.176c0.546-0.756,1.533-1.386,3.023-1.386
			S353.432,208.794,354.062,209.948z"/>
		<path fill="#F95700" d="M374.767,213.665c0,3.191-1.91,5.521-4.744,5.521c-1.512,0-2.436-0.588-2.961-1.176v5.795h-3.086v-15.474
			h2.771l0.146,1.196c0.566-0.776,1.596-1.406,3.129-1.406C372.857,208.122,374.767,210.474,374.767,213.665z M367.062,212.153
			v3.002c0.462,0.777,1.134,1.344,2.205,1.344c1.406,0,2.393-1.092,2.393-2.834c0-1.764-0.986-2.855-2.393-2.855
			C368.196,210.81,367.524,211.397,367.062,212.153z"/>
		<path fill="#F95700" d="M379.83,218.977h-3.086V203.02h3.086V218.977z"/>
		<path fill="#F95700" d="M392.134,213.518v0.987h-7.201c0.062,1.364,0.902,2.142,2.436,2.142c1.049,0,1.868-0.462,2.33-1.092
			l2.121,1.722c-1.113,1.28-2.52,1.91-4.515,1.91c-3.339,0-5.479-2.31-5.479-5.501s2.184-5.563,5.354-5.563
			C390.517,208.122,392.134,210.6,392.134,213.518z M384.933,212.552h4.156c-0.041-1.196-0.756-2.1-2.016-2.1
			S384.996,211.334,384.933,212.552z"/>
		<path fill="#F95700" d="M403.328,209.948c0.777-1.07,1.848-1.826,3.506-1.826c2.479,0,3.822,1.848,3.822,4.724v6.131h-3.107
			v-5.963c0-1.176-0.567-1.994-1.617-1.994c-0.924,0-1.533,0.588-1.974,1.26v6.697h-3.087v-5.963c0-1.176-0.566-1.994-1.616-1.994
			c-0.924,0-1.532,0.608-1.974,1.26v6.697h-3.086v-10.645h2.771l0.146,1.176c0.546-0.756,1.533-1.386,3.023-1.386
			S402.698,208.794,403.328,209.948z"/>
		<path fill="#F95700" d="M422.711,213.518v0.987h-7.201c0.062,1.364,0.902,2.142,2.436,2.142c1.049,0,1.868-0.462,2.33-1.092
			l2.121,1.722c-1.113,1.28-2.52,1.91-4.515,1.91c-3.339,0-5.479-2.31-5.479-5.501s2.184-5.563,5.354-5.563
			C421.093,208.122,422.711,210.6,422.711,213.518z M415.509,212.552h4.156c-0.041-1.196-0.756-2.1-2.016-2.1
			S415.572,211.334,415.509,212.552z"/>
		<path fill="#F95700" d="M434.701,212.846v6.131h-3.086v-5.963c0-1.176-0.651-1.994-1.743-1.994c-0.966,0-1.616,0.608-2.016,1.26
			v6.697h-3.087v-10.645h2.771l0.147,1.176c0.524-0.777,1.554-1.386,3.023-1.386C433.295,208.122,434.701,209.97,434.701,212.846z"
			/>
		<path fill="#F95700" d="M441.086,208.332h3.045v2.604h-3.045v4.031c0,0.924,0.588,1.448,1.47,1.448
			c0.63,0,1.071-0.146,1.364-0.314l0.777,2.436c-0.566,0.336-1.344,0.65-2.436,0.65c-2.604,0-4.262-1.49-4.262-4.178v-4.073h-1.911
			v-2.604H438v-3.527h3.086V208.332z"/>
		<path fill="#F95700" d="M453.203,209.528l0.168-1.196h2.771v10.645h-2.771l-0.168-1.176c-0.547,0.756-1.575,1.386-3.107,1.386
			c-2.835,0-4.746-2.33-4.746-5.521s1.911-5.543,4.746-5.543C451.628,208.122,452.656,208.752,453.203,209.528z M448.457,213.665
			c0,1.742,0.987,2.834,2.395,2.834c1.07,0,1.721-0.566,2.184-1.322v-3.023c-0.463-0.756-1.113-1.344-2.184-1.344
			C449.444,210.81,448.457,211.901,448.457,213.665z"/>
		<path fill="#F95700" d="M462.757,208.332h3.045v2.604h-3.045v4.031c0,0.924,0.588,1.448,1.47,1.448
			c0.63,0,1.071-0.146,1.364-0.314l0.777,2.436c-0.566,0.336-1.344,0.65-2.436,0.65c-2.604,0-4.262-1.49-4.262-4.178v-4.073h-1.911
			v-2.604h1.911v-3.527h3.086V208.332z"/>
		<path fill="#F95700" d="M471.22,204.973c0,1.05-0.756,1.806-1.805,1.806c-1.051,0-1.807-0.756-1.807-1.806
			s0.756-1.806,1.807-1.806C470.465,203.167,471.22,203.923,471.22,204.973z M470.948,218.977h-3.087v-10.645h3.087V218.977z"/>
		<path fill="#F95700" d="M484.156,213.686c0,3.191-2.395,5.501-5.627,5.501c-3.234,0-5.586-2.31-5.586-5.501
			s2.352-5.563,5.586-5.563C481.761,208.122,484.156,210.494,484.156,213.686z M476.05,213.686c0,1.617,1.051,2.813,2.479,2.813
			c1.448,0,2.498-1.196,2.498-2.813c0-1.638-1.05-2.876-2.498-2.876C477.101,210.81,476.05,212.048,476.05,213.686z"/>
		<path fill="#F95700" d="M496.062,212.846v6.131h-3.086v-5.963c0-1.176-0.651-1.994-1.743-1.994c-0.966,0-1.616,0.608-2.016,1.26
			v6.697h-3.087v-10.645h2.771l0.147,1.176c0.524-0.777,1.554-1.386,3.023-1.386C494.656,208.122,496.062,209.97,496.062,212.846z"
			/>
	</g>
</g>
</svg>
